# xmcd
#
# Track frame offsets:
#	150
#	11316
#	23554
#	35108
#	47239
#	59675
#	73170
#	86194
#	99391
#	109164
#	121439
#	133754
#	149453
#	163028
#	184684
#	195861
#	212692
#	226015
#
# Disc length: 3187 seconds
#
# Revision: 0
# Processed by: cddbd v1.5.2PL0 Copyright (c) Steve Scherf et al.
# Submitted via: SynApp - FreeCDDB Version: 2.3
#
DISCID=fd0c7112
DTITLE=Elvis Presley - the Blues Collection
DYEAR=0000
DGENRE=Blues
TTITLE0=BOOM BOOM
TTITLE1=CRAWLIN´KING SNAKE
TTITLE2=BOOGIE CHILLUN
TTITLE3=I´M IN THE MOOD
TTITLE4=LEAVE MY WIFE ALONE
TTITLE5=TIME IS MARCHING
TTITLE6=ONE BOURBON - ONE SCOTCH - ONE BEER
TTITLE7=GROUND HOG BLUES
TTITLE8=DIMPLES
TTITLE9=WALKING THE BOOGIE
TTITLE10=HOBO BLUES
TTITLE11=IT SERVES ME RIGHT TO SUFFER
TTITLE12=HIGH PRICED WOMAN
TTITLE13=THE WATERFRONT
TTITLE14=THIS IS HIP
TTITLE15=GOIN´MAD BLUES
TTITLE16=WANDERING BLUES
TTITLE17=HOUSE RENT BOOGIE
EXTD=
EXTT0=
EXTT1=
EXTT2=
EXTT3=
EXTT4=
EXTT5=
EXTT6=
EXTT7=
EXTT8=
EXTT9=
EXTT10=
EXTT11=
EXTT12=
EXTT13=
EXTT14=
EXTT15=
EXTT16=
EXTT17=
PLAYORDER=
